<svg width="3190" height="3185" xmlns="http://www.w3.org/2000/svg" xmlns:xlink="http://www.w3.org/1999/xlink" xml:space="preserve" overflow="hidden"><defs><clipPath id="clip0"><path d="M2406.08-360.866 4423.57 803.932 3258.77 2821.42 1241.28 1656.62Z" fill-rule="nonzero" clip-rule="nonzero"/></clipPath><clipPath id="clip1"><path d="M2406.08-360.866 4423.57 803.932 3258.77 2821.42 1241.28 1656.62Z" fill-rule="evenodd" clip-rule="evenodd"/></clipPath><clipPath id="clip2"><path d="M2406.08-360.866 4423.57 803.932 3258.77 2821.42 1241.28 1656.62Z" fill-rule="evenodd" clip-rule="evenodd"/></clipPath><clipPath id="clip3"><path d="M2427.39-281.338 4344.04 825.242 3237.46 2741.89 1320.81 1635.31Z" fill-rule="nonzero" clip-rule="nonzero"/></clipPath><clipPath id="clip4"><path d="M2427.39-281.338 4344.04 825.242 3237.46 2741.89 1320.81 1635.31Z" fill-rule="evenodd" clip-rule="evenodd"/></clipPath><clipPath id="clip5"><path d="M2427.39-281.338 4344.04 825.242 3237.46 2741.89 1320.81 1635.31Z" fill-rule="evenodd" clip-rule="evenodd"/></clipPath></defs><g transform="translate(-1237 362)"><g><path d="M994 2158 994 0 8.64345 533.88 0 1629.74 994 2158Z" fill="#FCAD1F" fill-rule="evenodd" fill-opacity="1" transform="matrix(-1 0 0 1 3795 160)"/><path d="M2832 2285 2832 190 1900.17 708.294 1892 1772.16 2832 2285Z" fill="#FFC82E" fill-rule="evenodd" fill-opacity="1"/><g clip-path="url(#clip0)"><g clip-path="url(#clip1)"><g clip-path="url(#clip2)"><path d="M2832.43 2348.48 1864.03 1789.38 1864.03 671.175 2832.43 112.072 3800.82 671.175 3800.82 1789.38Z" stroke="#283E4F" stroke-width="68.8212" stroke-linecap="butt" stroke-linejoin="miter" stroke-miterlimit="4" stroke-opacity="1" fill="none" fill-rule="nonzero"/></g></g></g><g clip-path="url(#clip3)"><g clip-path="url(#clip4)"><g clip-path="url(#clip5)"><path d="M2832.43 2292.59 1912.44 1761.43 1912.43 699.12 2832.43 167.962 3752.42 699.12 3752.42 1761.44Z" stroke="#283E4F" stroke-width="65.3814" stroke-linecap="butt" stroke-linejoin="miter" stroke-miterlimit="4" stroke-opacity="1" fill="none" fill-rule="nonzero"/></g></g></g><path d="M1892.5 756C1892.5 701.048 1936.82 656.5 1991.5 656.5 2046.18 656.5 2090.5 701.048 2090.5 756 2090.5 810.952 2046.18 855.5 1991.5 855.5 1936.82 855.5 1892.5 810.952 1892.5 756Z" stroke="#283D4E" stroke-width="114.583" stroke-linecap="butt" stroke-linejoin="miter" stroke-miterlimit="8" stroke-opacity="1" fill="#F0FEFE" fill-rule="evenodd" fill-opacity="1"/><path d="M3570.5 756C3570.5 701.048 3614.82 656.5 3669.5 656.5 3724.18 656.5 3768.5 701.048 3768.5 756 3768.5 810.952 3724.18 855.5 3669.5 855.5 3614.82 855.5 3570.5 810.952 3570.5 756Z" stroke="#283D4E" stroke-width="114.583" stroke-linecap="butt" stroke-linejoin="miter" stroke-miterlimit="8" stroke-opacity="1" fill="#F0FEFE" fill-rule="evenodd" fill-opacity="1"/><path d="M1892.5 1720C1892.5 1665.05 1936.82 1620.5 1991.5 1620.5 2046.18 1620.5 2090.5 1665.05 2090.5 1720 2090.5 1774.95 2046.18 1819.5 1991.5 1819.5 1936.82 1819.5 1892.5 1774.95 1892.5 1720Z" stroke="#283D4E" stroke-width="114.583" stroke-linecap="butt" stroke-linejoin="miter" stroke-miterlimit="8" stroke-opacity="1" fill="#F0FEFE" fill-rule="evenodd" fill-opacity="1"/><path d="M3568.5 1719.5C3568.5 1664.82 3612.82 1620.5 3667.5 1620.5 3722.18 1620.5 3766.5 1664.82 3766.5 1719.5 3766.5 1774.18 3722.18 1818.5 3667.5 1818.5 3612.82 1818.5 3568.5 1774.18 3568.5 1719.5Z" stroke="#283D4E" stroke-width="114.583" stroke-linecap="butt" stroke-linejoin="miter" stroke-miterlimit="8" stroke-opacity="1" fill="#F0FEFE" fill-rule="evenodd" fill-opacity="1"/><path d="M2731.5 256.5C2731.5 201.824 2775.82 157.5 2830.5 157.5 2885.18 157.5 2929.5 201.824 2929.5 256.5 2929.5 311.176 2885.18 355.5 2830.5 355.5 2775.82 355.5 2731.5 311.176 2731.5 256.5Z" stroke="#283D4E" stroke-width="114.583" stroke-linecap="butt" stroke-linejoin="miter" stroke-miterlimit="8" stroke-opacity="1" fill="#F0FEFE" fill-rule="evenodd" fill-opacity="1"/><path d="M2731.5 2186.5C2731.5 2131.82 2775.82 2087.5 2830.5 2087.5 2885.18 2087.5 2929.5 2131.82 2929.5 2186.5 2929.5 2241.18 2885.18 2285.5 2830.5 2285.5 2775.82 2285.5 2731.5 2241.18 2731.5 2186.5Z" stroke="#283D4E" stroke-width="114.583" stroke-linecap="butt" stroke-linejoin="miter" stroke-miterlimit="8" stroke-opacity="1" fill="#F0FEFE" fill-rule="evenodd" fill-opacity="1"/><path d="M2696 1237.5C2696 1011.89 2879.12 829 3105 829 3330.88 829 3514 1011.89 3514 1237.5 3514 1463.11 3330.88 1646 3105 1646 2879.12 1646 2696 1463.11 2696 1237.5Z" stroke="#283D4E" stroke-width="160.417" stroke-linecap="butt" stroke-linejoin="miter" stroke-miterlimit="8" stroke-opacity="1" fill="none" fill-rule="evenodd"/><path d="M2968.5 788.5C2968.5 712.285 3030.28 650.5 3106.5 650.5 3182.72 650.5 3244.5 712.285 3244.5 788.5 3244.5 864.715 3182.72 926.5 3106.5 926.5 3030.28 926.5 2968.5 864.715 2968.5 788.5Z" stroke="#17AAC8" stroke-width="68.75" stroke-linecap="butt" stroke-linejoin="miter" stroke-miterlimit="8" stroke-opacity="1" fill="#20DAE9" fill-rule="evenodd" fill-opacity="1"/><path d="M2970 1237.5C2970 1463.11 2786.88 1646 2561 1646 2335.12 1646 2152 1463.11 2152 1237.5 2152 1011.89 2335.12 829 2561 829 2786.88 829 2970 1011.89 2970 1237.5Z" stroke="#283D4E" stroke-width="160.417" stroke-linecap="butt" stroke-linejoin="miter" stroke-miterlimit="8" stroke-opacity="1" fill="none" fill-rule="evenodd"/><path d="M2698.5 1687.5C2698.5 1763.72 2636.72 1825.5 2560.5 1825.5 2484.28 1825.5 2422.5 1763.72 2422.5 1687.5 2422.5 1611.28 2484.28 1549.5 2560.5 1549.5 2636.72 1549.5 2698.5 1611.28 2698.5 1687.5Z" stroke="#17AAC8" stroke-width="68.75" stroke-linecap="butt" stroke-linejoin="miter" stroke-miterlimit="8" stroke-opacity="1" fill="#20DAE9" fill-rule="evenodd" fill-opacity="1"/><path d="M2531.8 772.545C2534.43 772.346 2537.02 772.38 2539.58 772.648 2542.14 772.915 2544.54 773.359 2546.8 773.979 2549.05 774.599 2551.09 775.335 2552.9 776.187 2554.71 777.039 2556.01 777.798 2556.78 778.464 2557.56 779.131 2558.11 779.699 2558.45 780.168 2558.78 780.637 2559.06 781.259 2559.28 782.034 2559.5 782.808 2559.71 783.765 2559.89 784.905 2560.08 786.045 2560.23 787.435 2560.36 789.074 2560.65 792.877 2560.52 795.573 2559.98 797.164 2559.44 798.755 2558.65 799.59 2557.6 799.669 2556.49 799.754 2555.27 799.384 2553.96 798.561 2552.64 797.737 2551.09 796.833 2549.3 795.848 2547.51 794.862 2545.4 794 2542.97 793.261 2540.54 792.523 2537.69 792.277 2534.41 792.526 2527.98 793.014 2523.25 795.862 2520.22 801.071 2517.18 806.28 2516.03 813.67 2516.76 823.243 2517.11 827.964 2517.86 832.095 2518.98 835.637 2520.11 839.178 2521.6 842.099 2523.45 844.398 2525.31 846.697 2527.55 848.357 2530.16 849.379 2532.78 850.4 2535.76 850.784 2539.1 850.53 2542.51 850.272 2545.41 849.541 2547.79 848.338 2550.17 847.135 2552.23 845.841 2553.98 844.456 2555.72 843.071 2557.17 841.824 2558.34 840.713 2559.51 839.602 2560.52 839.014 2561.37 838.95 2561.96 838.905 2562.47 839.031 2562.88 839.329 2563.3 839.627 2563.66 840.21 2563.96 841.078 2564.25 841.946 2564.52 843.063 2564.75 844.43 2564.99 845.797 2565.19 847.562 2565.35 849.726 2565.48 851.431 2565.54 852.861 2565.53 854.016 2565.52 855.17 2565.46 856.147 2565.36 856.947 2565.25 857.746 2565.11 858.4 2564.91 858.909 2564.72 859.418 2564.26 860.08 2563.53 860.894 2562.8 861.707 2561.53 862.727 2559.71 863.953 2557.89 865.179 2555.8 866.311 2553.44 867.347 2551.07 868.383 2548.49 869.272 2545.68 870.013 2542.86 870.754 2539.95 871.239 2536.93 871.467 2530.18 871.98 2524.12 871.385 2518.75 869.682 2513.37 867.979 2508.76 865.213 2504.91 861.384 2501.06 857.554 2498.01 852.758 2495.76 846.993 2493.51 841.229 2492.09 834.544 2491.52 826.938 2490.85 818.152 2491.37 810.48 2493.08 803.92 2494.8 797.361 2497.46 791.834 2501.07 787.339 2504.69 782.844 2509.11 779.377 2514.33 776.936 2519.55 774.496 2525.38 773.032 2531.8 772.545Z" fill="#FCAD1F" fill-rule="evenodd" fill-opacity="1"/><text fill="#000000" fill-opacity="0" font-family="Arial,Arial_MSFontService,sans-serif" font-size="99.2277" direction="ltr" writing-mode="lr-tb" x="2491.24" y="859.242">c</text><path d="M2630.44 797.511C2626.81 796.91 2623.52 797.048 2620.58 797.927 2617.63 798.806 2615.07 800.381 2612.9 802.654 2610.72 804.926 2608.9 807.79 2607.42 811.245 2605.95 814.701 2604.83 818.731 2604.07 823.337 2603.36 827.619 2603.07 831.619 2603.18 835.337 2603.3 839.056 2603.93 842.377 2605.08 845.3 2606.23 848.223 2608.05 850.639 2610.53 852.55 2613.01 854.461 2616.27 855.749 2620.29 856.415 2623.99 857.028 2627.31 856.894 2630.25 856.016 2633.2 855.137 2635.76 853.578 2637.93 851.338 2640.1 849.098 2641.9 846.247 2643.34 842.787 2644.78 839.326 2645.88 835.293 2646.64 830.687 2647.35 826.405 2647.66 822.408 2647.58 818.695 2647.49 814.981 2646.86 811.661 2645.68 808.732 2644.5 805.804 2642.69 803.371 2640.24 801.433 2637.8 799.495 2634.53 798.188 2630.44 797.511ZM2634.52 778.292C2642.31 779.581 2648.88 781.752 2654.24 784.806 2659.6 787.86 2663.81 791.739 2666.86 796.443 2669.91 801.148 2671.85 806.635 2672.68 812.904 2673.51 819.173 2673.29 826.167 2672.01 833.887 2670.78 841.282 2668.69 847.868 2665.74 853.643 2662.78 859.419 2658.96 864.185 2654.27 867.941 2649.58 871.697 2644.06 874.281 2637.69 875.693 2631.33 877.105 2624.15 877.15 2616.17 875.829 2608.45 874.551 2601.92 872.369 2596.56 869.283 2591.21 866.197 2586.99 862.299 2583.9 857.589 2580.82 852.879 2578.86 847.389 2578.03 841.12 2577.2 834.851 2577.42 827.889 2578.69 820.234 2579.92 812.839 2582.03 806.24 2585.02 800.437 2588.01 794.634 2591.85 789.871 2596.53 786.148 2601.22 782.424 2606.72 779.854 2613.06 778.436 2619.39 777.019 2626.55 776.971 2634.52 778.292Z" fill="#FCAD1F" fill-rule="evenodd" fill-opacity="1"/><text fill="#000000" fill-opacity="0" font-family="Arial,Arial_MSFontService,sans-serif" font-size="99.4514" direction="ltr" writing-mode="lr-tb" x="2577.54" y="864.356">o</text><path d="M2725.75 804.271C2727.95 805.305 2729.73 806.232 2731.09 807.051 2732.45 807.871 2733.49 808.632 2734.21 809.335 2734.93 810.038 2735.37 810.696 2735.52 811.31 2735.66 811.924 2735.6 812.529 2735.32 813.124L2714.19 858.121C2712.23 862.287 2711.01 865.598 2710.51 868.051 2710.01 870.505 2709.94 872.779 2710.3 874.873 2710.66 876.968 2711.49 878.845 2712.78 880.504 2714.07 882.164 2715.84 883.525 2718.11 884.587 2720.96 885.928 2724.32 886.235 2728.19 885.508 2732.05 884.78 2736.56 883.191 2741.71 880.74L2766.57 827.798C2766.85 827.202 2767.25 826.759 2767.79 826.466 2768.33 826.173 2769.1 826.081 2770.1 826.188 2771.1 826.296 2772.35 826.611 2773.85 827.133 2775.35 827.655 2777.2 828.433 2779.4 829.467 2781.61 830.501 2783.39 831.428 2784.74 832.247 2786.1 833.067 2787.13 833.821 2787.82 834.51 2788.52 835.199 2788.94 835.851 2789.08 836.465 2789.23 837.079 2789.17 837.683 2788.89 838.279L2751.49 917.916C2751.21 918.511 2750.82 918.962 2750.31 919.269 2749.8 919.575 2749.11 919.703 2748.22 919.651 2747.34 919.599 2746.25 919.361 2744.96 918.937 2743.67 918.513 2742.11 917.868 2740.26 917.001 2738.3 916.079 2736.74 915.257 2735.59 914.535 2734.44 913.813 2733.58 913.136 2733 912.503 2732.43 911.87 2732.1 911.26 2732.01 910.674 2731.92 910.088 2732.02 909.497 2732.3 908.902L2736.61 899.706C2729.97 902.4 2723.82 903.868 2718.15 904.11 2712.47 904.353 2707.2 903.328 2702.32 901.037 2696.84 898.465 2692.66 895.413 2689.78 891.881 2686.9 888.349 2685.04 884.497 2684.2 880.326 2683.36 876.155 2683.41 871.8 2684.34 867.262 2685.28 862.724 2687.17 857.419 2690.02 851.348L2712.91 802.601C2713.19 802.006 2713.6 801.562 2714.13 801.27 2714.67 800.977 2715.44 800.884 2716.44 800.992 2717.45 801.1 2718.71 801.422 2720.24 801.958 2721.77 802.493 2723.6 803.265 2725.75 804.271Z" fill="#FCAD1F" fill-rule="evenodd" fill-opacity="1"/><text fill="#000000" fill-opacity="0" font-family="Arial,Arial_MSFontService,sans-serif" font-size="118.714" direction="ltr" writing-mode="lr-tb" x="2683.61" y="904.823">u</text><path d="M2847.92 902.416C2846.68 901.341 2845.28 900.464 2843.74 899.784 2842.2 899.105 2840.43 898.64 2838.43 898.39 2836.43 898.14 2834.18 898.107 2831.67 898.29 2829.17 898.473 2826.31 898.915 2823.1 899.617L2804.15 921.563C2803.9 927.175 2804.19 931.921 2805.01 935.8 2805.83 939.68 2807.54 942.737 2810.12 944.972 2812.56 947.078 2815.18 948.25 2817.97 948.489 2820.76 948.727 2823.57 948.312 2826.41 947.242 2829.24 946.172 2832.02 944.593 2834.73 942.507 2837.45 940.42 2839.9 938.108 2842.09 935.57 2844.54 932.733 2846.69 929.826 2848.52 926.848 2850.35 923.87 2851.64 920.92 2852.38 917.999 2853.12 915.077 2853.19 912.287 2852.57 909.628 2851.96 906.969 2850.41 904.565 2847.92 902.416ZM2867.3 891.137C2872.18 895.349 2875.51 899.896 2877.29 904.777 2879.07 909.659 2879.6 914.702 2878.89 919.905 2878.17 925.109 2876.4 930.356 2873.57 935.644 2870.74 940.933 2867.15 946.09 2862.81 951.117 2857.7 957.039 2852.45 961.828 2847.08 965.485 2841.71 969.141 2836.36 971.584 2831.04 972.812 2825.72 974.04 2820.48 973.981 2815.3 972.635 2810.12 971.29 2805.19 968.597 2800.51 964.557 2798.57 962.88 2796.95 961.157 2795.65 959.387 2794.36 957.617 2793.29 955.691 2792.43 953.609 2791.58 951.527 2790.91 949.268 2790.4 946.835 2789.9 944.401 2789.51 941.725 2789.25 938.807L2762.18 970.159C2761.75 970.656 2761.21 970.975 2760.57 971.115 2759.93 971.256 2759.13 971.151 2758.17 970.802 2757.21 970.452 2756.07 969.836 2754.75 968.954 2753.42 968.072 2751.84 966.836 2750 965.245 2748.16 963.655 2746.7 962.27 2745.64 961.089 2744.57 959.908 2743.8 958.869 2743.31 957.972 2742.83 957.075 2742.61 956.299 2742.65 955.643 2742.7 954.987 2742.94 954.41 2743.37 953.912L2823.69 860.902C2824.12 860.404 2824.62 860.076 2825.19 859.918 2825.77 859.759 2826.47 859.824 2827.31 860.113 2828.14 860.401 2829.13 860.924 2830.25 861.68 2831.38 862.437 2832.72 863.482 2834.26 864.814 2835.75 866.103 2836.96 867.251 2837.87 868.256 2838.78 869.262 2839.44 870.157 2839.85 870.943 2840.25 871.729 2840.42 872.417 2840.35 873.005 2840.27 873.593 2840.02 874.136 2839.59 874.633L2832.82 882.471C2836.48 882.157 2839.9 882.047 2843.08 882.141 2846.26 882.234 2849.26 882.609 2852.08 883.265 2854.9 883.921 2857.56 884.892 2860.05 886.178 2862.55 887.464 2864.97 889.117 2867.3 891.137Z" fill="#FCAD1F" fill-rule="evenodd" fill-opacity="1"/><text fill="#000000" fill-opacity="0" font-family="Arial,Arial_MSFontService,sans-serif" font-size="113.858" direction="ltr" writing-mode="lr-tb" x="2742.65" y="959.459">p</text><path d="M2953.95 925.685C2955.44 927.606 2956.59 929.25 2957.41 930.617 2958.22 931.984 2958.78 933.155 2959.08 934.129 2959.38 935.104 2959.44 935.909 2959.27 936.543 2959.09 937.177 2958.75 937.696 2958.23 938.1L2855.83 1017.71C2855.31 1018.11 2854.73 1018.31 2854.1 1018.3 2853.47 1018.29 2852.73 1018.01 2851.89 1017.46 2851.04 1016.91 2850.07 1016.06 2848.97 1014.91 2847.87 1013.77 2846.58 1012.24 2845.08 1010.31 2843.59 1008.39 2842.43 1006.76 2841.59 1005.41 2840.75 1004.07 2840.17 1002.92 2839.84 1001.96 2839.51 1001.01 2839.43 1000.22 2839.57 999.608 2839.72 998.994 2840.05 998.485 2840.57 998.082L2942.97 918.476C2943.49 918.073 2944.08 917.865 2944.74 917.854 2945.39 917.843 2946.16 918.102 2947.03 918.633 2947.9 919.164 2948.9 919.992 2950.02 921.117 2951.15 922.241 2952.45 923.764 2953.95 925.685Z" fill="#FCAD1F" fill-rule="evenodd" fill-opacity="1"/><text fill="#000000" fill-opacity="0" font-family="Arial,Arial_MSFontService,sans-serif" font-size="100.444" direction="ltr" writing-mode="lr-tb" x="2839.5" y="1005.74">l</text><path d="M2953.69 1032.94C2952.26 1030.13 2950.48 1027.95 2948.37 1026.41 2946.26 1024.86 2943.95 1023.86 2941.47 1023.39 2938.98 1022.93 2936.33 1022.95 2933.53 1023.45 2930.72 1023.96 2927.91 1024.85 2925.1 1026.14L2941.93 1059.19C2948.23 1056.2 2952.48 1052.47 2954.66 1048 2956.85 1043.53 2956.53 1038.51 2953.69 1032.94ZM2969.6 1025.5C2972.95 1032.06 2974.84 1038.16 2975.28 1043.81 2975.71 1049.45 2974.98 1054.64 2973.08 1059.37 2971.17 1064.11 2968.23 1068.37 2964.26 1072.16 2960.29 1075.96 2955.55 1079.26 2950.04 1082.06L2946.53 1083.85C2943.83 1085.23 2941.53 1085.64 2939.63 1085.1 2937.73 1084.55 2936.24 1083.23 2935.17 1081.12L2910.86 1033.39C2907.52 1035.09 2904.69 1037.03 2902.37 1039.21 2900.05 1041.39 2898.38 1043.83 2897.35 1046.53 2896.33 1049.23 2896.01 1052.19 2896.4 1055.42 2896.79 1058.66 2897.96 1062.18 2899.9 1065.98 2901.87 1069.85 2903.88 1073.11 2905.93 1075.75 2907.98 1078.4 2909.88 1080.62 2911.65 1082.42 2913.41 1084.21 2914.93 1085.67 2916.2 1086.79 2917.47 1087.92 2918.33 1088.92 2918.78 1089.8 2919.05 1090.32 2919.17 1090.81 2919.15 1091.27 2919.12 1091.73 2918.9 1092.21 2918.49 1092.71 2918.09 1093.21 2917.42 1093.75 2916.5 1094.33 2915.58 1094.91 2914.38 1095.58 2912.92 1096.32 2911.63 1096.98 2910.52 1097.51 2909.58 1097.91 2908.64 1098.32 2907.82 1098.63 2907.11 1098.84 2906.41 1099.05 2905.78 1099.15 2905.22 1099.14 2904.66 1099.13 2904.08 1099.04 2903.48 1098.86 2902.87 1098.69 2901.79 1097.94 2900.22 1096.6 2898.65 1095.25 2896.86 1093.44 2894.84 1091.14 2892.82 1088.85 2890.7 1086.13 2888.47 1082.99 2886.24 1079.84 2884.14 1076.34 2882.17 1072.47 2878.62 1065.5 2876.39 1058.94 2875.47 1052.8 2874.56 1046.66 2875 1040.92 2876.78 1035.59 2878.56 1030.25 2881.74 1025.33 2886.31 1020.83 2890.88 1016.32 2896.82 1012.21 2904.15 1008.48 2911.12 1004.92 2917.87 1002.63 2924.39 1001.6 2930.91 1000.56 2937 1000.78 2942.65 1002.26 2948.31 1003.73 2953.43 1006.42 2958 1010.32 2962.57 1014.23 2966.44 1019.29 2969.6 1025.5Z" fill="#FCAD1F" fill-rule="evenodd" fill-opacity="1"/><text fill="#000000" fill-opacity="0" font-family="Arial,Arial_MSFontService,sans-serif" font-size="98.1809" direction="ltr" writing-mode="lr-tb" x="2875.01" y="1086.87">e</text><path d="M2786.75 1411.37C2787.94 1413.71 2788.91 1416.12 2789.65 1418.58 2790.38 1421.05 2790.9 1423.44 2791.19 1425.76 2791.49 1428.08 2791.59 1430.25 2791.5 1432.25 2791.42 1434.25 2791.21 1435.73 2790.9 1436.71 2790.58 1437.68 2790.27 1438.41 2789.96 1438.9 2789.66 1439.38 2789.19 1439.88 2788.56 1440.38 2787.93 1440.89 2787.13 1441.44 2786.15 1442.05 2785.17 1442.66 2783.94 1443.34 2782.48 1444.09 2779.08 1445.82 2776.54 1446.74 2774.87 1446.85 2773.19 1446.97 2772.11 1446.56 2771.64 1445.62 2771.13 1444.62 2771 1443.36 2771.26 1441.83 2771.51 1440.3 2771.75 1438.51 2771.97 1436.48 2772.19 1434.45 2772.18 1432.17 2771.92 1429.65 2771.67 1427.12 2770.8 1424.39 2769.31 1421.46 2766.39 1415.72 2761.94 1412.45 2755.96 1411.65 2749.99 1410.85 2742.72 1412.63 2734.16 1416.99 2729.94 1419.13 2726.42 1421.41 2723.58 1423.81 2720.75 1426.21 2718.62 1428.71 2717.22 1431.31 2715.81 1433.91 2715.14 1436.61 2715.2 1439.42 2715.26 1442.22 2716.05 1445.12 2717.58 1448.11 2719.13 1451.16 2720.91 1453.55 2722.94 1455.29 2724.97 1457.02 2726.95 1458.43 2728.9 1459.5 2730.85 1460.58 2732.56 1461.44 2734.04 1462.09 2735.51 1462.74 2736.44 1463.45 2736.83 1464.21 2737.1 1464.74 2737.18 1465.25 2737.06 1465.75 2736.95 1466.25 2736.55 1466.81 2735.86 1467.42 2735.17 1468.02 2734.25 1468.7 2733.07 1469.44 2731.9 1470.19 2730.35 1471.05 2728.42 1472.03 2726.89 1472.81 2725.6 1473.41 2724.53 1473.85 2723.46 1474.28 2722.53 1474.6 2721.75 1474.81 2720.98 1475.03 2720.31 1475.14 2719.77 1475.16 2719.23 1475.18 2718.44 1475.01 2717.41 1474.65 2716.38 1474.29 2714.94 1473.5 2713.11 1472.29 2711.28 1471.09 2709.43 1469.59 2707.57 1467.81 2705.7 1466.03 2703.89 1463.98 2702.12 1461.67 2700.35 1459.36 2698.79 1456.86 2697.41 1454.16 2694.34 1448.13 2692.56 1442.3 2692.07 1436.69 2691.57 1431.08 2692.35 1425.75 2694.4 1420.73 2696.46 1415.7 2699.71 1411.04 2704.16 1406.74 2708.62 1402.45 2714.24 1398.57 2721.04 1395.11 2728.9 1391.12 2736.18 1388.65 2742.89 1387.7 2749.61 1386.76 2755.73 1387.09 2761.27 1388.7 2766.81 1390.31 2771.71 1393.05 2775.97 1396.93 2780.24 1400.81 2783.83 1405.63 2786.75 1411.37Z" fill="#FFC82E" fill-rule="evenodd" fill-opacity="1"/><text fill="#000000" fill-opacity="0" font-family="Arial,Arial_MSFontService,sans-serif" font-size="87.9821" direction="ltr" writing-mode="lr-tb" x="2691.92" y="1464.16">c</text><path d="M2810.95 1481.69C2808.6 1478.85 2806.03 1476.8 2803.24 1475.53 2800.44 1474.25 2797.47 1473.76 2794.34 1474.05 2791.21 1474.33 2787.95 1475.29 2784.57 1476.93 2781.19 1478.57 2777.7 1480.88 2774.1 1483.85 2770.75 1486.61 2767.9 1489.43 2765.55 1492.32 2763.2 1495.2 2761.49 1498.12 2760.44 1501.08 2759.39 1504.03 2759.17 1507.05 2759.79 1510.12 2760.4 1513.19 2762.01 1516.3 2764.61 1519.44 2766.99 1522.33 2769.59 1524.42 2772.38 1525.69 2775.18 1526.96 2778.13 1527.46 2781.24 1527.2 2784.35 1526.93 2787.58 1525.97 2790.94 1524.31 2794.3 1522.64 2797.78 1520.32 2801.38 1517.35 2804.73 1514.59 2807.59 1511.78 2809.96 1508.92 2812.33 1506.07 2814.04 1503.15 2815.07 1500.16 2816.1 1497.18 2816.33 1494.15 2815.76 1491.09 2815.19 1488.02 2813.59 1484.89 2810.95 1481.69ZM2826.65 1469.88C2831.67 1475.96 2835.2 1481.92 2837.24 1487.74 2839.28 1493.56 2839.9 1499.25 2839.11 1504.81 2838.33 1510.36 2836.19 1515.77 2832.69 1521.04 2829.2 1526.31 2824.44 1531.44 2818.4 1536.42 2812.62 1541.19 2806.72 1544.79 2800.7 1547.2 2794.68 1549.62 2788.67 1550.7 2782.66 1550.45 2776.66 1550.21 2770.8 1548.53 2765.07 1545.41 2759.34 1542.3 2753.9 1537.62 2748.75 1531.38 2743.77 1525.35 2740.28 1519.41 2738.26 1513.57 2736.25 1507.72 2735.63 1502.01 2736.4 1496.43 2737.16 1490.85 2739.29 1485.43 2742.79 1480.16 2746.28 1474.89 2751.02 1469.78 2757 1464.84 2762.78 1460.07 2768.7 1456.48 2774.77 1454.07 2780.84 1451.66 2786.86 1450.59 2792.84 1450.85 2798.82 1451.12 2804.66 1452.8 2810.37 1455.89 2816.07 1458.98 2821.5 1463.64 2826.65 1469.88Z" fill="#FFC82E" fill-rule="evenodd" fill-opacity="1"/><text fill="#000000" fill-opacity="0" font-family="Arial,Arial_MSFontService,sans-serif" font-size="99.6752" direction="ltr" writing-mode="lr-tb" x="2736.08" y="1538.03">o</text><path d="M2865.98 1514.13C2867.94 1515.57 2869.51 1516.82 2870.69 1517.88 2871.86 1518.95 2872.74 1519.9 2873.31 1520.72 2873.89 1521.55 2874.19 1522.28 2874.22 1522.91 2874.24 1523.55 2874.06 1524.13 2873.67 1524.66L2844.31 1564.77C2841.59 1568.48 2839.75 1571.5 2838.79 1573.81 2837.83 1576.12 2837.33 1578.34 2837.28 1580.46 2837.23 1582.59 2837.68 1584.59 2838.63 1586.47 2839.58 1588.34 2841.06 1590.02 2843.08 1591.49 2845.63 1593.36 2848.87 1594.3 2852.8 1594.33 2856.73 1594.36 2861.46 1593.66 2866.98 1592.24L2901.53 1545.05C2901.92 1544.52 2902.4 1544.16 2902.99 1543.98 2903.57 1543.79 2904.34 1543.85 2905.31 1544.15 2906.27 1544.44 2907.44 1544.99 2908.81 1545.79 2910.18 1546.59 2911.84 1547.71 2913.81 1549.15 2915.77 1550.58 2917.34 1551.84 2918.52 1552.9 2919.69 1553.97 2920.55 1554.9 2921.1 1555.71 2921.65 1556.52 2921.94 1557.24 2921.97 1557.87 2921.99 1558.5 2921.81 1559.08 2921.42 1559.61L2869.45 1630.6C2869.07 1631.14 2868.59 1631.5 2868.04 1631.71 2867.48 1631.91 2866.77 1631.9 2865.92 1631.68 2865.06 1631.46 2864.04 1631.02 2862.85 1630.36 2861.67 1629.69 2860.25 1628.76 2858.61 1627.55 2856.86 1626.27 2855.49 1625.17 2854.5 1624.24 2853.51 1623.31 2852.79 1622.48 2852.35 1621.75 2851.9 1621.02 2851.7 1620.35 2851.72 1619.76 2851.75 1619.17 2851.96 1618.61 2852.34 1618.08L2858.34 1609.88C2851.31 1611.25 2844.99 1611.51 2839.38 1610.66 2833.76 1609.81 2828.78 1607.8 2824.43 1604.61 2819.55 1601.04 2816.03 1597.24 2813.88 1593.22 2811.73 1589.2 2810.64 1585.07 2810.62 1580.81 2810.6 1576.56 2811.48 1572.29 2813.27 1568.02 2815.05 1563.74 2817.92 1558.9 2821.89 1553.49L2853.7 1510.03C2854.09 1509.5 2854.57 1509.14 2855.15 1508.96 2855.74 1508.78 2856.51 1508.83 2857.47 1509.13 2858.44 1509.43 2859.62 1509.99 2861.02 1510.81 2862.41 1511.62 2864.07 1512.73 2865.98 1514.13Z" fill="#FFC82E" fill-rule="evenodd" fill-opacity="1"/><text fill="#000000" fill-opacity="0" font-family="Arial,Arial_MSFontService,sans-serif" font-size="122.998" direction="ltr" writing-mode="lr-tb" x="2810.62" y="1616.48">u</text><path d="M2965.21 1595.41C2963.68 1594.79 2962.08 1594.41 2960.41 1594.26 2958.73 1594.1 2956.9 1594.23 2954.93 1594.64 2952.95 1595.04 2950.81 1595.73 2948.49 1596.7 2946.18 1597.68 2943.61 1599.01 2940.8 1600.71L2929.87 1627.57C2931.44 1632.96 2933.23 1637.36 2935.25 1640.78 2937.27 1644.19 2939.86 1646.54 2943.03 1647.83 2946.01 1649.04 2948.86 1649.32 2951.58 1648.65 2954.31 1647.98 2956.84 1646.69 2959.18 1644.76 2961.52 1642.84 2963.65 1640.46 2965.55 1637.61 2967.45 1634.77 2969.04 1631.79 2970.3 1628.68 2971.71 1625.21 2972.81 1621.77 2973.6 1618.36 2974.38 1614.96 2974.66 1611.75 2974.42 1608.74 2974.19 1605.74 2973.36 1603.07 2971.92 1600.75 2970.49 1598.43 2968.25 1596.65 2965.21 1595.41ZM2979.96 1578.52C2985.93 1580.95 2990.54 1584.19 2993.78 1588.24 2997.03 1592.3 2999.15 1596.91 3000.14 1602.06 3001.13 1607.22 3001.13 1612.76 3000.14 1618.68 2999.16 1624.59 2997.41 1630.63 2994.91 1636.78 2991.96 1644.03 2988.52 1650.24 2984.6 1655.43 2980.68 1660.61 2976.4 1664.64 2971.76 1667.5 2967.11 1670.37 2962.12 1672 2956.78 1672.38 2951.44 1672.76 2945.91 1671.79 2940.19 1669.46 2937.81 1668.49 2935.73 1667.38 2933.93 1666.12 2932.14 1664.85 2930.51 1663.37 2929.03 1661.67 2927.56 1659.97 2926.19 1658.05 2924.94 1655.91 2923.68 1653.76 2922.46 1651.35 2921.28 1648.67L2905.67 1687.04C2905.42 1687.65 2905.01 1688.12 2904.45 1688.46 2903.89 1688.8 2903.1 1688.96 2902.08 1688.93 2901.06 1688.91 2899.78 1688.69 2898.24 1688.28 2896.71 1687.87 2894.81 1687.2 2892.56 1686.29 2890.3 1685.37 2888.48 1684.52 2887.1 1683.74 2885.71 1682.97 2884.64 1682.23 2883.9 1681.54 2883.15 1680.84 2882.69 1680.18 2882.52 1679.54 2882.36 1678.9 2882.4 1678.28 2882.65 1677.67L2928.96 1563.84C2929.21 1563.23 2929.58 1562.76 2930.07 1562.43 2930.56 1562.09 2931.25 1561.93 2932.13 1561.93 2933.02 1561.94 2934.12 1562.12 2935.43 1562.48 2936.74 1562.83 2938.34 1563.39 2940.22 1564.16 2942.05 1564.91 2943.56 1565.61 2944.75 1566.27 2945.93 1566.93 2946.84 1567.57 2947.48 1568.18 2948.12 1568.79 2948.5 1569.39 2948.62 1569.97 2948.73 1570.55 2948.67 1571.15 2948.42 1571.76L2944.52 1581.35C2947.89 1579.88 2951.09 1578.68 2954.13 1577.75 2957.17 1576.82 2960.13 1576.22 2963.01 1575.94 2965.9 1575.65 2968.73 1575.72 2971.5 1576.14 2974.28 1576.56 2977.1 1577.35 2979.96 1578.52Z" fill="#FFC82E" fill-rule="evenodd" fill-opacity="1"/><text fill="#000000" fill-opacity="0" font-family="Arial,Arial_MSFontService,sans-serif" font-size="127.002" direction="ltr" writing-mode="lr-tb" x="2882.42" y="1673.06">p</text><path d="M3040.58 1553.95C3042.97 1554.44 3044.91 1554.95 3046.41 1555.46 3047.92 1555.98 3049.1 1556.51 3049.96 1557.06 3050.82 1557.61 3051.39 1558.18 3051.67 1558.77 3051.95 1559.37 3052.02 1559.99 3051.89 1560.63L3025.43 1687.61C3025.3 1688.25 3024.99 1688.77 3024.5 1689.18 3024.01 1689.58 3023.27 1689.84 3022.27 1689.97 3021.27 1690.1 3019.98 1690.08 3018.4 1689.92 3016.82 1689.76 3014.84 1689.43 3012.46 1688.94 3010.08 1688.44 3008.13 1687.95 3006.62 1687.47 3005.11 1686.98 3003.92 1686.48 3003.05 1685.97 3002.19 1685.45 3001.61 1684.91 3001.33 1684.35 3001.04 1683.79 3000.96 1683.18 3001.1 1682.54L3027.55 1555.56C3027.69 1554.92 3028 1554.38 3028.49 1553.95 3028.99 1553.51 3029.74 1553.21 3030.74 1553.05 3031.75 1552.89 3033.05 1552.88 3034.63 1553.01 3036.22 1553.14 3038.2 1553.45 3040.58 1553.95Z" fill="#FFC82E" fill-rule="evenodd" fill-opacity="1"/><text fill="#000000" fill-opacity="0" font-family="Arial,Arial_MSFontService,sans-serif" font-size="137.134" direction="ltr" writing-mode="lr-tb" x="3001.03" y="1672.91">l</text><path d="M3094.43 1618.37C3091.27 1618.26 3088.51 1618.77 3086.14 1619.87 3083.77 1620.98 3081.78 1622.51 3080.17 1624.47 3078.56 1626.42 3077.3 1628.75 3076.39 1631.45 3075.48 1634.15 3074.91 1637.04 3074.68 1640.13L3111.74 1641.33C3112.17 1634.37 3110.95 1628.85 3108.08 1624.78 3105.22 1620.7 3100.67 1618.57 3094.43 1618.37ZM3095.58 1600.84C3102.95 1601.07 3109.2 1602.36 3114.36 1604.7 3119.51 1607.04 3123.7 1610.18 3126.93 1614.14 3130.16 1618.09 3132.48 1622.72 3133.88 1628.03 3135.29 1633.34 3135.9 1639.08 3135.7 1645.26L3135.57 1649.2C3135.47 1652.22 3134.72 1654.44 3133.33 1655.84 3131.94 1657.24 3130.06 1657.9 3127.69 1657.83L3074.16 1656.1C3074.04 1659.84 3074.37 1663.26 3075.16 1666.34 3075.95 1669.43 3077.28 1672.07 3079.15 1674.27 3081.02 1676.47 3083.46 1678.18 3086.48 1679.39 3089.5 1680.61 3093.15 1681.28 3097.42 1681.42 3101.76 1681.56 3105.58 1681.37 3108.89 1680.86 3112.19 1680.34 3115.06 1679.74 3117.48 1679.06 3119.91 1678.38 3121.92 1677.76 3123.51 1677.18 3125.11 1676.61 3126.4 1676.34 3127.39 1676.37 3127.98 1676.39 3128.47 1676.52 3128.86 1676.76 3129.24 1677.01 3129.56 1677.43 3129.8 1678.03 3130.05 1678.63 3130.2 1679.47 3130.26 1680.56 3130.33 1681.65 3130.33 1683.01 3130.28 1684.66 3130.23 1686.1 3130.16 1687.33 3130.06 1688.35 3129.96 1689.37 3129.83 1690.23 3129.68 1690.95 3129.53 1691.67 3129.31 1692.27 3129.03 1692.76 3128.75 1693.24 3128.39 1693.71 3127.95 1694.15 3127.51 1694.6 3126.32 1695.19 3124.39 1695.91 3122.46 1696.64 3120 1697.33 3117.02 1697.99 3114.04 1698.65 3110.63 1699.2 3106.8 1699.64 3102.97 1700.07 3098.89 1700.22 3094.55 1700.08 3086.73 1699.83 3079.91 1698.62 3074.09 1696.46 3068.27 1694.3 3063.46 1691.15 3059.64 1687.01 3055.83 1682.87 3053.05 1677.72 3051.31 1671.54 3049.57 1665.37 3048.83 1658.17 3049.1 1649.96 3049.35 1642.14 3050.6 1635.12 3052.84 1628.91 3055.08 1622.7 3058.21 1617.47 3062.22 1613.23 3066.24 1608.98 3071.07 1605.8 3076.69 1603.68 3082.32 1601.56 3088.62 1600.61 3095.58 1600.84Z" fill="#FFC82E" fill-rule="evenodd" fill-opacity="1"/><text fill="#000000" fill-opacity="0" font-family="Arial,Arial_MSFontService,sans-serif" font-size="99.3264" direction="ltr" writing-mode="lr-tb" x="3049.04" y="1687.71">e</text></g></g></svg>